<svg xmlns="http://www.w3.org/2000/svg" viewBox="0 0 639 639" width="639" height="639"><defs></defs><g transform="matrix(1,0,0,1,-180.01525553,-180.01525553)">
<g>
	<g>
		<path d="M180.01525553015847,372.0061022120659 C180.01525553015847,266.06847554008345 266.06847554008596,180.01525553015597 372.0061022120684,180.01525553015597 L627.9938977879484,180.01525553015597 C733.9315244599309,180.01525553015597 819.9847444698584,266.06847554008345 819.9847444698584,372.0061022120659 L819.9847444698584,627.9938977879459 C819.9847444698584,733.9315244599284 733.9315244599309,819.9847444698559 627.9938977879484,819.9847444698559 L372.0061022120684,819.9847444698559 C266.06847554008596,819.9847444698559 180.01525553015847,733.9315244599284 180.01525553015847,627.9938977879459 L180.01525553015847,372.0061022120659 Z" transform="matrix(1,0,0,1,0,0)" fill="#188749"/>
	</g>
	<g>
		<path d="M499.9999999999902,499.9999999999914 C499.9999999999902,499.11275019536833 500.71711016673964,498.3920364599418 501.5999237223396,498.3920364599418 L818.384820747521,498.3920364599418 C819.2676343031209,498.3920364599418 819.9847444698703,499.11275019536833 819.9847444698703,499.9999999999914 L819.9847444698703,818.3767809298213 C819.9847444698703,819.2640307344443 819.2676343031209,819.9847444698709 818.384820747521,819.9847444698709 L501.5999237223396,819.9847444698709 C500.71711016673964,819.9847444698709 499.9999999999902,819.2640307344443 499.9999999999902,818.3767809298213 L499.9999999999902,499.9999999999914 Z" fill="#188749"/>
	</g>
	<g>
		<path d="M659.9923722349304,659.1883904649063 L381.5569071067382,381.21931640057863" fill="#fefefe" stroke="#71b75a" stroke-width="40" stroke-linecap="round"/>
	</g>
	<g>
		<path d="M603.3533782983131,407.32832573133345 C603.3533782983131,407.32832573133345 600.0227024751425,599.3191724132583 600.0227024751425,599.3191724132583" fill="none" stroke="#71b75a" stroke-width="40" stroke-linecap="round"/>
	</g>
	<g>
		<path d="M411.36253161640326,599.3191724132437 C411.36253161640326,599.3191724132437 601.7534545759758,599.3191724132585 601.7534545759758,599.3191724132585" fill="none" stroke="#71b75a" stroke-width="40" stroke-linecap="round"/>
	</g>
	<g>
		<path d="M603.3533782983131,407.32832573133345 C603.3533782983131,407.32832573133345 600.0227024751425,599.3191724132583 600.0227024751425,599.3191724132583" transform="matrix(1,0,0,1,-102.761814697,-100.927135953)" fill="none" stroke="#71b75a" stroke-width="40" stroke-linecap="round"/>
	</g>
	<g>
		<path d="M411.36253161640326,599.3191724132436 C411.36253161640326,599.3191724132436 601.7534545759758,599.3191724132585 601.7534545759758,599.3191724132585" transform="matrix(1,0,0,1,-101.753454576,-100.927135953)" fill="none" stroke="#71b75a" stroke-width="40" stroke-linecap="round"/>
	</g>
</g></g></svg>
